<svg version="1.1" viewBox="0.0 0.0 165.7244094488189 100.0" fill="none" stroke="none" stroke-linecap="square" stroke-miterlimit="10" xmlns:xlink="http://www.w3.org/1999/xlink" xmlns="http://www.w3.org/2000/svg"><clipPath id="p.0"><path d="m0 0l165.72441 0l0 100.0l-165.72441 0l0 -100.0z" clip-rule="nonzero"/></clipPath><g clip-path="url(#p.0)"><path fill="#000000" fill-opacity="0.0" d="m0 0l165.72441 0l0 100.0l-165.72441 0z" fill-rule="evenodd"/><path fill="#000000" fill-opacity="0.0" d="m7.4593177 0.95663834l150.80315 0l0 63.02362l-150.80315 0z" fill-rule="evenodd"/><path fill="#999999" d="m41.576954 40.516636l10.421875 0l0 4.0l-15.265625 0l0 -26.03125l4.84375 0l0 22.03125zm37.29688 -9.015625q0 2.859375 -0.953125 5.296875q-0.953125 2.4375 -2.6875 4.234375q-1.71875 1.78125 -4.15625 2.78125q-2.421875 0.984375 -5.375 0.984375q-2.9531288 0 -5.390629 -0.984375q-2.4375 -1.0 -4.1875 -2.78125q-1.734375 -1.796875 -2.6875 -4.234375q-0.953125 -2.4375 -0.953125 -5.296875q0 -2.859375 0.953125 -5.296875q0.953125 -2.4375 2.6875 -4.21875q1.75 -1.78125 4.1875 -2.78125q2.4375 -1.0 5.390629 -1.0q2.953125 0 5.375 1.015625q2.4375 1.0 4.15625 2.78125q1.734375 1.765625 2.6875 4.203125q0.953125 2.4375 0.953125 5.296875zm-4.96875 0q0 -2.140625 -0.578125 -3.84375q-0.5625 -1.703125 -1.625 -2.890625q-1.046875 -1.1875 -2.578125 -1.8125q-1.515625 -0.625 -3.421875 -0.625q-1.9062538 0 -3.4375038 0.625q-1.53125 0.625 -2.609375 1.8125q-1.0625 1.1875 -1.640625 2.890625q-0.578125 1.703125 -0.578125 3.84375q0 2.140625 0.578125 3.84375q0.578125 1.703125 1.640625 2.890625q1.078125 1.171875 2.609375 1.796875q1.53125 0.625 3.4375038 0.625q1.90625 0 3.421875 -0.625q1.53125 -0.625 2.578125 -1.796875q1.0625 -1.1875 1.625 -2.890625q0.578125 -1.703125 0.578125 -3.84375zm30.738815 13.015625l-3.734375 0q-0.640625 0 -1.046875 -0.3125q-0.390625 -0.3125 -0.578125 -0.78125l-1.9375 -5.3125l-10.78125 0l-1.953125 5.3125q-0.140625 0.40625 -0.5625 0.75q-0.421875 0.34375 -1.03125 0.34375l-3.765625 0l10.21875 -26.03125l4.953125 0l10.21875 26.03125zm-16.84375 -9.828125l8.296875 0l-3.171875 -8.65625q-0.203125 -0.578125 -0.46875 -1.359375q-0.265625 -0.78125 -0.515625 -1.703125q-0.25 0.921875 -0.5 1.71875q-0.234375 0.78125 -0.46875 1.375l-3.171875 8.625zm0.4375 -20.46875q0 -0.765625 0.296875 -1.390625q0.3125 -0.640625 0.8125 -1.09375q0.515625 -0.453125 1.171875 -0.703125q0.671875 -0.25 1.40625 -0.25q0.78125 0 1.453125 0.25q0.6875 0.25 1.203125 0.703125q0.53125 0.453125 0.828125 1.09375q0.3125 0.625 0.3125 1.390625q0 0.765625 -0.3125 1.390625q-0.296875 0.609375 -0.828125 1.0625q-0.515625 0.453125 -1.203125 0.703125q-0.671875 0.234375 -1.453125 0.234375q-0.734375 0 -1.40625 -0.234375q-0.65625 -0.25 -1.171875 -0.703125q-0.5 -0.453125 -0.8125 -1.0625q-0.296875 -0.625 -0.296875 -1.390625zm2.125 0q0 0.703125 0.421875 1.15625q0.421875 0.453125 1.21875 0.453125q0.71875 0 1.140625 -0.453125q0.4375 -0.453125 0.4375 -1.15625q0 -0.75 -0.4375 -1.171875q-0.421875 -0.4375 -1.140625 -0.4375q-0.796875 0 -1.21875 0.4375q-0.421875 0.421875 -0.421875 1.171875zm40.075462 17.28125q0 2.859375 -0.953125 5.265625q-0.953125 2.390625 -2.6874924 4.125q-1.71875 1.71875 -4.15625 2.671875q-2.421875 0.953125 -5.375 0.953125l-9.9375 0l0 -26.03125l9.9375 0q2.953125 0 5.375 0.96875q2.4375 0.953125 4.15625 2.6875q1.7343674 1.71875 2.6874924 4.109375q0.953125 2.390625 0.953125 5.25zm-4.9374924 0q0 -2.140625 -0.578125 -3.84375q-0.578125 -1.703125 -1.640625 -2.875q-1.0625 -1.1875 -2.59375 -1.8125q-1.515625 -0.625 -3.421875 -0.625l-5.0625 0l0 18.3125l5.0625 0q1.90625 0 3.421875 -0.625q1.53125 -0.625 2.59375 -1.796875q1.0625 -1.1875 1.640625 -2.890625q0.578125 -1.703125 0.578125 -3.84375z" fill-rule="nonzero"/><path fill="#000000" fill-opacity="0.0" d="m2.8136482 36.019543l160.0945 0l0 63.023624l-160.0945 0z" fill-rule="evenodd"/><path fill="#e69138" d="m46.108295 79.579544l-3.734375 0q-0.640625 0 -1.046875 -0.3125q-0.390625 -0.3125 -0.578125 -0.78125l-1.9375 -5.3125l-10.78125 0l-1.953125 5.3125q-0.140625 0.40625 -0.5625 0.75q-0.421875 0.34375 -1.03125 0.34375l-3.765625 0l10.21875 -26.031254l4.953125 0l10.21875 26.031254zm-16.84375 -9.828125l8.296875 0l-3.171875 -8.656254q-0.203125 -0.578125 -0.46875 -1.359375q-0.265625 -0.78125 -0.515625 -1.703125q-0.25 0.921875 -0.5 1.71875q-0.234375 0.78125 -0.46875 1.375l-3.171875 8.625004zm35.226353 -16.203129l0 3.984375l-7.828129 0l0 22.046879l-4.84375 0l0 -22.046879l-7.859375 0l0 -3.984375l20.531254 0zm26.640854 13.015629q0 2.859375 -0.953125 5.296875q-0.953125 2.4375 -2.6875 4.234375q-1.71875 1.78125 -4.15625 2.78125q-2.421875 0.984375 -5.375 0.984375q-2.953125 0 -5.390625 -0.984375q-2.4375 -1.0 -4.1875 -2.78125q-1.734375 -1.796875 -2.6875 -4.234375q-0.953125 -2.4375 -0.953125 -5.296875q0 -2.8593788 0.953125 -5.296879q0.953125 -2.4375 2.6875 -4.21875q1.75 -1.78125 4.1875 -2.78125q2.4375 -1.0 5.390625 -1.0q2.953125 0 5.375 1.015625q2.4375 1.0 4.15625 2.78125q1.734375 1.765625 2.6875 4.203125q0.953125 2.4375 0.953125 5.296879zm-4.96875 0q0 -2.140625 -0.578125 -3.8437538q-0.5625 -1.703125 -1.625 -2.890625q-1.046875 -1.1875 -2.578125 -1.8125q-1.515625 -0.625 -3.421875 -0.625q-1.90625 0 -3.4375 0.625q-1.53125 0.625 -2.609375 1.8125q-1.0625 1.1875 -1.640625 2.890625q-0.578125 1.7031288 -0.578125 3.8437538q0 2.140625 0.578125 3.84375q0.578125 1.703125 1.640625 2.890625q1.078125 1.171875 2.609375 1.796875q1.53125 0.625 3.4375 0.625q1.90625 0 3.421875 -0.625q1.53125 -0.625 2.578125 -1.796875q1.0625 -1.1875 1.625 -2.890625q0.578125 -1.703125 0.578125 -3.84375zm21.85994 2.21875q0.296875 0.578125 0.5625 1.203125q0.265625 0.609375 0.515625 1.234375q0.25 -0.640625 0.515625 -1.265625q0.265625 -0.640625 0.578125 -1.203125l7.703125 -14.421879q0.140625 -0.28125 0.296875 -0.4375q0.15625 -0.15625 0.34375 -0.21875q0.1875 -0.078125 0.421875 -0.09375q0.234375 -0.03125 0.5625 -0.03125l3.65625 0l0 26.031254l-4.28125 0l0 -16.812504q0 -0.46875 0.03125 -1.015625q0.03125 -0.5625 0.078125 -1.140625l-7.859375 14.750004q-0.265625 0.515625 -0.703125 0.796875q-0.4375 0.265625 -1.0 0.265625l-0.671875 0q-0.578125 0 -1.015625 -0.265625q-0.421875 -0.28125 -0.703125 -0.796875l-7.96875 -14.812504q0.078125 0.59375 0.09375 1.171875q0.03125 0.5625 0.03125 1.046875l0 16.812504l-4.265625 0l0 -26.031254l3.65625 0q0.328125 0 0.5625 0.03125q0.234375 0.015625 0.421875 0.09375q0.1875 0.0625 0.34375 0.21875q0.171875 0.15625 0.3125 0.4375l7.78125 14.453129l0 0zm34.35479 -10.500004q-0.203125 0.40625 -0.46875 0.5625q-0.25 0.15625 -0.609375 0.15625q-0.359375 0 -0.8125 -0.265625q-0.453125 -0.28125 -1.0625 -0.625q-0.609375 -0.34375 -1.4375 -0.625q-0.8125 -0.28125 -1.921875 -0.28125q-1.015625 0 -1.765625 0.25q-0.734375 0.234375 -1.25 0.671875q-0.515625 0.421875 -0.765625 1.03125q-0.25 0.609375 -0.25 1.328125q0 0.90625 0.5 1.53125q0.515625 0.609375 1.359375 1.046875q0.859375 0.421875 1.9375 0.765625q1.078125 0.3437538 2.203125 0.7343788q1.125 0.375 2.203125 0.890625q1.078125 0.515625 1.921875 1.296875q0.84375 0.78125 1.359375 1.921875q0.515625 1.125 0.515625 2.75q0 1.765625 -0.609375 3.3125q-0.59375 1.53125 -1.765625 2.671875q-1.15625 1.140625 -2.828125 1.796875q-1.671875 0.65625 -3.828125 0.65625q-1.25 0 -2.453125 -0.25q-1.203125 -0.234375 -2.3125 -0.671875q-1.109375 -0.453125 -2.078125 -1.078125q-0.9531174 -0.640625 -1.7187424 -1.40625l1.40625 -2.328125q0.20311737 -0.25 0.48436737 -0.421875q0.28125 -0.171875 0.625 -0.171875q0.4375 0 0.953125 0.375q0.53125 0.359375 1.234375 0.8125q0.71875 0.453125 1.671875 0.828125q0.96875 0.359375 2.328125 0.359375q2.0625 0 3.203125 -0.984375q1.140625 -0.984375 1.140625 -2.8125q0 -1.03125 -0.515625 -1.671875q-0.515625 -0.65625 -1.359375 -1.09375q-0.84375 -0.4375 -1.9375 -0.734375q-1.078125 -0.3125 -2.203125 -0.671875q-1.109375 -0.359375 -2.1875 -0.859375q-1.078125 -0.515625 -1.921875 -1.328125q-0.84375 -0.8125 -1.359375 -2.0156288q-0.5156174 -1.21875 -0.5156174 -3.0q0 -1.421875 0.5624924 -2.765625q0.578125 -1.359375 1.65625 -2.40625q1.09375 -1.046875 2.671875 -1.671875q1.59375 -0.625 3.625 -0.625q2.3125 0 4.25 0.71875q1.9375 0.71875 3.3125 2.015625l-1.1875 2.28125z" fill-rule="nonzero"/></g></svg>