<svg version="1.1" viewBox="0.0 0.0 165.61417322834646 100.0" fill="none" stroke="none" stroke-linecap="square"
    stroke-miterlimit="10" xmlns:xlink="http://www.w3.org/1999/xlink" xmlns="http://www.w3.org/2000/svg">
    <clipPath id="p.0">
        <path d="m0 0l165.61417 0l0 100.0l-165.61417 0l0 -100.0z" clip-rule="nonzero" />
    </clipPath>
    <g clip-path="url(#p.0)">
        <path fill="#000000" fill-opacity="0.0" d="m0 0l165.61417 0l0 100.0l-165.61417 0z" fill-rule="evenodd" />
        <path fill="#000000" fill-opacity="0.0" d="m7.406824 1.1981081l150.80315 0l0 63.023624l-150.80315 0z"
            fill-rule="evenodd" />
        <path fill="#999999"
            d="m41.954716 39.89873l9.71875 0l0 4.859375l-15.8125 0l0 -26.21875l6.09375 0l0 21.359375zm37.040752 -8.265625q0 2.84375 -0.984375 5.296875q-0.984375 2.453125 -2.765625 4.265625q-1.78125 1.796875 -4.296875 2.828125q-2.5 1.015625 -5.5625 1.015625q-3.0624962 0 -5.578121 -1.015625q-2.515625 -1.03125 -4.3125 -2.828125q-1.796875 -1.8125 -2.78125 -4.265625q-0.96875 -2.453125 -0.96875 -5.296875q0 -2.84375 0.96875 -5.28125q0.984375 -2.453125 2.78125 -4.25q1.796875 -1.8125 4.3125 -2.828125q2.515625 -1.03125 5.578121 -1.03125q3.0625 0 5.5625 1.046875q2.515625 1.03125 4.296875 2.828125q1.78125 1.796875 2.765625 4.25q0.984375 2.4375 0.984375 5.265625zm-6.234375 0q0 -1.9375 -0.5 -3.5q-0.5 -1.5625 -1.453125 -2.640625q-0.9375 -1.078125 -2.3125 -1.640625q-1.359375 -0.578125 -3.109375 -0.578125q-1.7656212 0 -3.1406212 0.578125q-1.375 0.5625 -2.328125 1.640625q-0.9375 1.078125 -1.453125 2.640625q-0.5 1.5625 -0.5 3.5q0 1.96875 0.5 3.53125q0.515625 1.546875 1.453125 2.625q0.953125 1.078125 2.328125 1.65625q1.375 0.5625 3.1406212 0.5625q1.75 0 3.109375 -0.5625q1.375 -0.578125 2.3125 -1.65625q0.953125 -1.078125 1.453125 -2.625q0.5 -1.5625 0.5 -3.53125zm32.46982 13.125l-4.703125 0q-0.796875 0 -1.3125 -0.359375q-0.515625 -0.375 -0.71875 -0.953125l-1.546875 -4.578125l-9.96875 0l-1.546875 4.578125q-0.171875 0.5 -0.703125 0.90625q-0.515625 0.40625 -1.28125 0.40625l-4.75 0l10.15625 -26.21875l6.234375 0l10.140625 26.21875zm-16.84375 -10.03125l7.171875 0l-2.421875 -7.171875q-0.234375 -0.6875 -0.546875 -1.609375q-0.3125 -0.9375 -0.625 -2.015625q-0.28125 1.09375 -0.59375 2.03125q-0.296875 0.9375 -0.578125 1.625l-2.40625 7.140625zm42.766205 -3.09375q0 2.84375 -0.984375 5.25q-0.96875 2.40625 -2.75 4.15625q-1.78125 1.75 -4.296875 2.734375q-2.515625 0.984375 -5.578125 0.984375l-10.1875 0l0 -26.21875l10.1875 0q3.0625 0 5.578125 0.984375q2.515625 0.984375 4.296875 2.734375q1.78125 1.75 2.75 4.15625q0.984375 2.390625 0.984375 5.21875zm-6.21875 0q0 -1.9375 -0.515625 -3.5q-0.5 -1.578125 -1.453125 -2.65625q-0.9375 -1.09375 -2.3125 -1.671875q-1.359375 -0.59375 -3.109375 -0.59375l-4.0625 0l0 16.859375l4.0625 0q1.75 0 3.109375 -0.578125q1.375 -0.578125 2.3125 -1.671875q0.953125 -1.09375 1.453125 -2.65625q0.515625 -1.5625 0.515625 -3.53125z"
            fill-rule="nonzero" />
        <path fill="#000000" fill-opacity="0.0" d="m2.7598426 36.019543l160.09448 0l0 63.023624l-160.09448 0z"
            fill-rule="evenodd" />
        <path fill="#e69138"
            d="m46.244003 79.579544l-4.703125 0q-0.796875 0 -1.3125 -0.359375q-0.515625 -0.375 -0.71875 -0.953125l-1.546875 -4.578125l-9.96875 0l-1.546875 4.578125q-0.171875 0.5 -0.703125 0.90625q-0.515625 0.40625 -1.28125 0.40625l-4.75 0l10.15625 -26.218754l6.234375 0l10.140625 26.218754zm-16.84375 -10.03125l7.171875 0l-2.421875 -7.171879q-0.234375 -0.6875 -0.546875 -1.609375q-0.3125 -0.9375 -0.625 -2.015625q-0.28125 1.09375 -0.59375 2.03125q-0.296875 0.9375 -0.578125 1.625l-2.40625 7.140629zm35.1362 -16.187504l0 4.8125l-7.375 0l0 21.406254l-6.09375 0l0 -21.406254l-7.375 0l0 -4.8125l20.84375 0zm27.327606 13.093754q0 2.84375 -0.984375 5.296875q-0.984375 2.453125 -2.765625 4.265625q-1.78125 1.796875 -4.296875 2.828125q-2.5 1.015625 -5.5625 1.015625q-3.0625 0 -5.578125 -1.015625q-2.515625 -1.03125 -4.3125 -2.828125q-1.796875 -1.8125 -2.78125 -4.265625q-0.96875 -2.453125 -0.96875 -5.296875q0 -2.8437538 0.96875 -5.281254q0.984375 -2.453125 2.78125 -4.25q1.796875 -1.8125 4.3125 -2.828125q2.515625 -1.03125 5.578125 -1.03125q3.0625 0 5.5625 1.046875q2.515625 1.03125 4.296875 2.828125q1.78125 1.796875 2.765625 4.25q0.984375 2.4375 0.984375 5.265629zm-6.234375 0q0 -1.9375 -0.5 -3.5000038q-0.5 -1.5625 -1.453125 -2.640625q-0.9375 -1.078125 -2.3125 -1.640625q-1.359375 -0.578125 -3.109375 -0.578125q-1.765625 0 -3.140625 0.578125q-1.375 0.5625 -2.328125 1.640625q-0.9375 1.078125 -1.453125 2.640625q-0.5 1.5625038 -0.5 3.5000038q0 1.96875 0.5 3.53125q0.515625 1.546875 1.453125 2.625q0.953125 1.078125 2.328125 1.65625q1.375 0.5625 3.140625 0.5625q1.75 0 3.109375 -0.5625q1.375 -0.578125 2.3125 -1.65625q0.953125 -1.078125 1.453125 -2.625q0.5 -1.5625 0.5 -3.53125zm22.54982 1.140625q0.375 0.6875 0.703125 1.421875q0.328125 0.734375 0.640625 1.515625q0.296875 -0.796875 0.640625 -1.546875q0.34375 -0.75 0.703125 -1.453125l6.734375 -13.250004q0.171875 -0.328125 0.359375 -0.515625q0.203125 -0.203125 0.4375 -0.28125q0.234375 -0.09375 0.53125 -0.109375q0.296875 -0.015625 0.6875 -0.015625l4.640625 0l0 26.218754l-5.359375 0l0 -15.078125q0 -1.1093788 0.109375 -2.3750038l-6.953125 13.468754q-0.328125 0.640625 -0.875 0.96875q-0.546875 0.3125 -1.25 0.3125l-0.828125 0q-0.703125 0 -1.25 -0.3125q-0.546875 -0.328125 -0.875 -0.96875l-6.984375 -13.500004q0.078125 0.640625 0.109375 1.265625q0.046875 0.609375 0.046875 1.1406288l0 15.078125l-5.375 0l0 -26.218754l4.640625 0q0.40625 0 0.703125 0.015625q0.296875 0.015625 0.53125 0.109375q0.234375 0.078125 0.421875 0.28125q0.1875 0.1875 0.359375 0.515625l6.75 13.312504l0 0zm35.022537 -8.906254q-0.28125 0.421875 -0.578125 0.640625q-0.296875 0.21875 -0.765625 0.21875q-0.40625 0 -0.890625 -0.265625q-0.46875 -0.265625 -1.078125 -0.578125q-0.59375 -0.328125 -1.375 -0.578125q-0.765625 -0.265625 -1.765625 -0.265625q-1.703125 0 -2.546875 0.734375q-0.828125 0.71875 -0.828125 1.953125q0 0.796875 0.5 1.328125q0.5 0.515625 1.3125 0.890625q0.828125 0.375 1.875 0.703125q1.0625 0.3125 2.15625 0.7031288q1.09375 0.375 2.140625 0.90625q1.0625 0.515625 1.875 1.328125q0.828125 0.8125 1.328125 1.96875q0.5 1.15625 0.5 2.796875q0 1.8125 -0.625 3.40625q-0.625 1.578125 -1.828125 2.765625q-1.1875 1.171875 -2.953125 1.84375q-1.75 0.671875 -3.984375 0.671875q-1.21875 0 -2.5 -0.25q-1.265625 -0.25 -2.453125 -0.703125q-1.1875 -0.46875 -2.234375 -1.09375q-1.03125 -0.625 -1.8125 -1.40625l1.796875 -2.84375q0.203125 -0.328125 0.5625 -0.515625q0.359375 -0.203125 0.78125 -0.203125q0.53125 0 1.078125 0.34375q0.546875 0.34375 1.234375 0.765625q0.703125 0.40625 1.59375 0.75q0.90625 0.34375 2.140625 0.34375q1.65625 0 2.5625 -0.734375q0.921875 -0.734375 0.921875 -2.3125q0 -0.921875 -0.5 -1.484375q-0.5 -0.578125 -1.328125 -0.953125q-0.8125 -0.390625 -1.859375 -0.671875q-1.046875 -0.296875 -2.140625 -0.640625q-1.09375 -0.359375 -2.140625 -0.859375q-1.046875 -0.515625 -1.875 -1.34375q-0.8125 -0.84375 -1.3125 -2.0937538q-0.5 -1.265625 -0.5 -3.09375q0 -1.484375 0.59375 -2.875q0.59375 -1.40625 1.734375 -2.5q1.15625 -1.109375 2.828125 -1.765625q1.671875 -0.65625 3.84375 -0.65625q1.203125 0 2.34375 0.1875q1.140625 0.1875 2.15625 0.5625q1.03125 0.375 1.921875 0.890625q0.890625 0.5 1.59375 1.15625l-1.5 2.828125z"
            fill-rule="nonzero" />
    </g>
</svg>